<svg width="30" height="30" viewBox="0 0 30 30" fill="none" xmlns="http://www.w3.org/2000/svg">
<path d="M30 15C30 23.2843 23.2843 30 15 30C6.71573 30 0 23.2843 0 15C0 6.71573 6.71573 0 15 0C23.2843 0 30 6.71573 30 15Z" fill="white"/>
<path fill-rule="evenodd" clip-rule="evenodd" d="M25 15.5C25 16.3284 24.3284 17 23.5 17L6.5 17C5.67157 17 5 16.3284 5 15.5C5 14.6716 5.67157 14 6.5 14L23.5 14C24.3284 14 25 14.6716 25 15.5Z" fill="black"/>
<path fill-rule="evenodd" clip-rule="evenodd" d="M15.5 25C14.6716 25 14 24.3284 14 23.5L14 6.5C14 5.67157 14.6716 5 15.5 5C16.3284 5 17 5.67157 17 6.5L17 23.5C17 24.3284 16.3284 25 15.5 25Z" fill="black"/>
</svg>
